<svg width="159" height="40" viewBox="0 0 159 40" fill="none" xmlns="http://www.w3.org/2000/svg">
<path d="M25.7354 33.0172C25.7354 28.6469 28.8898 25.7051 33.3933 25.7051C37.8967 25.7051 40.9371 28.5357 40.9371 32.9889V39.6415H36.9784V37.3875C36.233 39.0648 34.6263 39.9995 32.5909 39.9995C29.4365 39.9995 25.7354 37.7456 25.7354 33.0172ZM36.6342 32.8514C36.6342 30.899 35.3146 29.5534 33.3638 29.5534C31.4129 29.5534 30.0933 30.9008 30.0933 32.8514C30.0933 34.8019 31.4129 36.1494 33.3638 36.1494C35.3146 36.1494 36.6342 34.8019 36.6342 32.8514Z" fill="#222829"/>
<path d="M42.5684 34.28V21.252H46.8713V26.0614H53.5832V29.7721H46.8713V34.28C46.8713 35.7085 47.5596 36.1495 48.5055 36.1495C49.4514 36.1495 50.1397 35.7104 50.1397 34.28V33.8673H54.4426V34.28C54.4426 38.1547 52.0336 39.9978 48.5055 39.9978C44.9774 39.9978 42.5684 38.1566 42.5684 34.28Z" fill="#222829"/>
<path d="M55.9326 32.8514C55.9326 28.7279 59.087 25.7051 63.563 25.7051C68.0389 25.7051 71.1068 28.7279 71.1068 32.8514V34.0066H60.4086C60.7527 35.601 62.0153 36.3152 63.563 36.3152C64.796 36.3152 65.7144 36.0683 66.2592 35.3258H70.7056C69.7872 38.1301 67.0911 39.9977 63.563 39.9977C59.089 39.9977 55.9326 36.9748 55.9326 32.8514ZM66.6879 31.3946C66.2002 29.9925 65.0537 29.3875 63.561 29.3875C62.0684 29.3875 60.9219 30.0189 60.4912 31.3946H66.6859H66.6879Z" fill="#222829"/>
<path d="M96.1289 20.126H100.432V27.5191C101.293 26.3375 102.497 25.7043 103.96 25.7043C106.943 25.7043 110.127 27.6284 110.127 32.6037V39.6407H105.824V32.6037C105.824 30.4591 104.735 29.5526 103.128 29.5526C101.521 29.5526 100.432 30.5137 100.432 32.6037V39.6407H96.1289V20.126Z" fill="#222829"/>
<path d="M111.575 32.8514C111.575 28.7279 114.73 25.7051 119.206 25.7051C123.682 25.7051 126.749 28.7279 126.749 32.8514V34.0066H116.051C116.395 35.601 117.658 36.3152 119.206 36.3152C120.439 36.3152 121.357 36.0683 121.902 35.3258H126.348C125.43 38.1301 122.734 39.9977 119.206 39.9977C114.732 39.9977 111.575 36.9748 111.575 32.8514ZM122.33 31.3946C121.843 29.9925 120.696 29.3875 119.204 29.3875C117.711 29.3875 116.564 30.0189 116.134 31.3946H122.329H122.33Z" fill="#222829"/>
<path d="M127.822 32.8514C127.822 28.7279 130.977 25.7051 135.453 25.7051C139.382 25.7051 142.251 28.0419 142.853 31.3946H138.493C138.005 30.2676 136.886 29.5534 135.453 29.5534C133.502 29.5534 132.182 30.9008 132.182 32.8514C132.182 34.8019 133.502 36.1494 135.453 36.1494C136.886 36.1494 138.005 35.4351 138.493 34.3081H142.853C142.251 37.6608 139.382 39.9977 135.453 39.9977C130.979 39.9977 127.822 36.9748 127.822 32.8514Z" fill="#222829"/>
<path d="M144.504 20.126H148.807V31.7802L153.31 26.0624H158.646L152.88 32.7149L158.874 39.6407H153.424L148.807 33.7853V39.6407H144.504V20.126Z" fill="#222829"/>
<path d="M49.5291 6.11257L48.6834 6.46498L45.9951 1.89301L47.5369 0.992188L49.5291 6.11257Z" fill="#E1EDF0"/>
<path d="M52.4216 5.40871L51.4639 5.30318L51.3184 0.0433414L53.0214 0L52.4216 5.40871Z" fill="#E1EDF0"/>
<path d="M54.9424 6.25465L54.2285 5.88151L56.4704 1.57715L57.8549 2.34417L54.9424 6.25465Z" fill="#E1EDF0"/>
<path d="M51.3391 8.99594C51.0421 8.7566 50.405 8.89229 50.0883 9.02044C49.0323 9.45012 47.7678 10.1625 46.8435 10.758C46.8356 10.0362 46.7825 9.21643 45.9113 9.40677C45.1837 9.56508 45.0342 10.5582 44.7353 11.1462C44.3656 11.8756 44.043 12.7274 44.2633 13.517C44.5111 14.4009 45.5042 14.612 46.0785 14.6101C47.28 14.6025 48.7924 14.2256 49.5593 13.2381C49.933 12.7557 49.929 11.8718 49.7048 11.5118C50.3204 11.1161 51.4512 10.2153 51.4964 9.4162C51.5082 9.21643 51.4453 9.08263 51.3391 8.99594Z" fill="#E1EDF0"/>
<path d="M44.8874 14.607L44.8638 10.8379C35.9945 10.8379 25.3887 14.3846 20.6767 22.1246C19.6482 21.5724 18.425 21.3067 17.0956 21.3067C14.8301 21.3067 13.0228 22.1585 11.9038 23.7811C10.7848 22.1604 8.97749 21.3067 6.71198 21.3067C2.92629 21.3067 0 23.4513 0 28.2607V39.6398H4.64706V28.2607C4.64706 26.1726 5.70901 25.4301 7.11316 25.4301C8.51731 25.4301 9.57927 26.1726 9.57927 28.2607V39.6398H14.2263V28.2607C14.2263 26.1726 15.3158 25.4301 16.6924 25.4301C18.069 25.4301 19.1585 26.1726 19.1585 28.2607V39.6398H23.8056V28.2607C23.8056 28.1495 23.8056 28.0402 23.8017 27.9328C23.723 25.219 24.783 22.5769 26.8538 20.7262C31.784 16.322 39.5462 14.607 44.8874 14.607Z" fill="#00C3CC"/>
<path d="M53.2111 8.2946C53.5376 8.09295 54.1512 8.30779 54.4481 8.47364C55.4373 9.03147 56.5957 9.89272 57.4334 10.5975C57.5396 9.88141 57.7009 9.0767 58.5406 9.37257C59.2427 9.61945 59.2564 10.622 59.4728 11.2421C59.7402 12.011 59.9487 12.8948 59.6222 13.6506C59.2565 14.4967 58.2456 14.5853 57.6753 14.5099C56.4855 14.3554 55.0361 13.7938 54.4088 12.7196C54.102 12.1938 54.2259 11.3193 54.4953 10.9895C53.9368 10.5203 52.9378 9.48753 52.9988 8.69036C53.0145 8.4906 53.0951 8.36622 53.2111 8.29272V8.2946Z" fill="#E1EDF0"/>
<path d="M84.4717 35.874C81.2878 35.874 79.1934 33.6747 79.1934 30.6519C79.1934 27.629 81.2878 25.4297 84.4717 25.4297C86.8237 25.4297 88.574 26.6396 89.3193 28.4809H94.224C93.2781 24.2198 89.4924 21.3063 84.4717 21.3063C82.8965 21.3063 81.449 21.5946 80.1708 22.1185C75.3231 14.437 63.3269 11.8684 59.4685 11.2295L58.7979 14.944C64.9336 15.9598 71.917 18.4342 75.6181 22.5313C76.3988 23.3944 76.5247 24.6552 75.9033 25.6314C74.9967 27.058 74.4912 28.7673 74.4912 30.65C74.4912 36.038 78.6211 39.9956 84.4737 39.9956C89.4924 39.9956 93.2801 37.082 94.226 32.821H89.3213C88.576 34.6622 86.8257 35.8721 84.4737 35.8721L84.4717 35.874Z" fill="#00C3CC"/>
</svg>
