<svg width="357" height="140" viewBox="0 0 357 140" fill="none" xmlns="http://www.w3.org/2000/svg">
<path d="M32.52 18.28V23.16H20.52V28.56H34.08V33.44H0.679976V28.56H14.24V23.16H2.63998V2H16.4V6.88H8.91998V18.28H16.4V20.8H18.8V0.799998H32.12V5.68H25.08V18.28H32.52ZM80.5065 20.84V34.24H50.1065V20.84H80.5065ZM54.7065 5.28V7.2H69.9865V12.08H54.7065V13.96H70.3865V18.84H48.4265V0.399999H69.9865V5.28H54.7065ZM80.5065 -9.53674e-07V19.04H74.2265V-9.53674e-07H80.5065ZM56.3865 25.68V29.4H74.2265V25.68H56.3865ZM110.684 25.4V24H87.4837V20.28H116.964V29.12H93.7637V30.52H117.364V34.24H87.4837V25.4H110.684ZM87.4837 0.359999H116.964V4.84H112.604V7.52H116.964V12H87.4837V7.52H91.8837V4.84H87.4837V0.359999ZM85.5237 13.92H118.924V18.4H85.5237V13.92ZM98.1637 7.52H106.324V4.84H98.1637V7.52ZM123.621 33.68V27.6H130.061V33.68H123.621ZM135.027 33.68V27.6H141.467V33.68H135.027ZM146.433 33.68V27.6H152.873V33.68H146.433ZM22.8 68.92C22.8 71.96 22.4666 74.5333 21.8 76.64C21.16 78.7467 20.3066 80.44 19.24 81.72C18.2 83.0267 16.9866 83.9733 15.6 84.56C14.24 85.1467 12.84 85.44 11.4 85.44C9.93331 85.44 8.50664 85.1467 7.11998 84.56C5.75998 83.9733 4.54664 83.0267 3.47998 81.72C2.43998 80.44 1.59998 78.7467 0.959976 76.64C0.319976 74.5333 -2.44081e-05 71.96 -2.44081e-05 68.92C-2.44081e-05 65.88 0.319976 63.32 0.959976 61.24C1.59998 59.1333 2.43998 57.4267 3.47998 56.12C4.54664 54.8133 5.75998 53.8667 7.11998 53.28C8.50664 52.6933 9.93331 52.4 11.4 52.4C12.84 52.4 14.24 52.6933 15.6 53.28C16.9866 53.8667 18.2 54.8133 19.24 56.12C20.3066 57.4267 21.16 59.1333 21.8 61.24C22.4666 63.32 22.8 65.88 22.8 68.92ZM6.23998 68.92C6.23998 71.1867 6.37331 73.0667 6.63998 74.56C6.93331 76.0533 7.30664 77.2533 7.75998 78.16C8.23998 79.04 8.78664 79.6667 9.39998 80.04C10.04 80.3867 10.7066 80.56 11.4 80.56C12.0666 80.56 12.7066 80.3867 13.32 80.04C13.96 79.6667 14.5066 79.04 14.96 78.16C15.44 77.28 15.8133 76.0933 16.08 74.6C16.3733 73.08 16.52 71.1733 16.52 68.88C16.52 66.6133 16.3733 64.7333 16.08 63.24C15.8133 61.7467 15.44 60.56 14.96 59.68C14.5066 58.8 13.96 58.1867 13.32 57.84C12.7066 57.4667 12.0666 57.28 11.4 57.28C10.7066 57.28 10.04 57.4667 9.39998 57.84C8.78664 58.1867 8.23998 58.8133 7.75998 59.72C7.30664 60.6 6.93331 61.7867 6.63998 63.28C6.37331 64.7733 6.23998 66.6533 6.23998 68.92ZM33.28 85.44H27V52H33.28V85.44ZM45.0972 57.32H52.0972V52.4H58.3772V72.04H38.8172V52.4H45.0972V57.32ZM46.7772 74.84V81.4H71.2972V86.24H40.4972V74.84H46.7772ZM70.8972 52V75.88H64.6172V63.68L59.5772 64.84V59.84L64.6172 58.68V52H70.8972ZM52.0972 62.2H45.0972V67.16H52.0972V62.2ZM98.9944 85.44V69.56L95.1144 70.88C95.0077 73.6267 94.6744 75.9333 94.1144 77.8C93.5544 79.6667 92.821 81.16 91.9144 82.28C91.0344 83.4267 90.021 84.24 88.8744 84.72C87.7277 85.2 86.501 85.44 85.1944 85.44C83.8077 85.44 82.501 85.16 81.2744 84.6C80.0744 84.0667 79.021 83.16 78.1144 81.88C77.2344 80.6 76.5277 78.9067 75.9944 76.8C75.4877 74.6933 75.2344 72.0667 75.2344 68.92C75.2344 65.8 75.4877 63.1867 75.9944 61.08C76.5277 58.9467 77.2344 57.24 78.1144 55.96C79.021 54.68 80.0744 53.7733 81.2744 53.24C82.501 52.68 83.8077 52.4 85.1944 52.4C86.4477 52.4 87.6344 52.6267 88.7544 53.08C89.8744 53.5333 90.8744 54.2933 91.7544 55.36C92.6344 56.4 93.3544 57.7867 93.9144 59.52C94.501 61.2533 94.8744 63.3867 95.0344 65.92L98.9944 64.56V52H104.754V85.44H98.9944ZM113.474 85.44H107.674V52H113.474V85.44ZM80.9544 68.92C80.9544 71.2933 81.0744 73.24 81.3144 74.76C81.5544 76.2533 81.8744 77.44 82.2744 78.32C82.6744 79.1733 83.1277 79.76 83.6344 80.08C84.141 80.4 84.661 80.56 85.1944 80.56C85.7277 80.56 86.2477 80.4 86.7544 80.08C87.261 79.76 87.701 79.1733 88.0744 78.32C88.4744 77.44 88.7944 76.2533 89.0344 74.76C89.2744 73.24 89.3944 71.28 89.3944 68.88C89.3944 66.5333 89.2744 64.6133 89.0344 63.12C88.7944 61.6 88.4744 60.4133 88.0744 59.56C87.701 58.68 87.261 58.08 86.7544 57.76C86.2477 57.44 85.7277 57.28 85.1944 57.28C84.661 57.28 84.141 57.44 83.6344 57.76C83.1277 58.08 82.6744 58.68 82.2744 59.56C81.8744 60.4133 81.5544 61.6 81.3144 63.12C81.0744 64.6133 80.9544 66.5467 80.9544 68.92ZM124.945 60.08H147.345V64.96H118.665V52.4H124.945V60.08ZM116.305 68.04H149.705V72.92H116.305V68.04ZM124.545 75.64V81.36H148.145V86.24H118.265V75.64H124.545ZM165.212 60.72C167.185 60.5333 168.865 60.3467 170.252 60.16C171.638 59.9467 172.785 59.7067 173.692 59.44C174.625 59.1467 175.332 58.8267 175.812 58.48C176.318 58.1333 176.665 57.72 176.852 57.24H165.892V52.4H194.572V57.24H183.252C183.198 57.3733 183.158 57.52 183.132 57.68C183.105 57.8133 183.065 57.9467 183.012 58.08L195.332 60.84L193.412 64.84L179.892 61.72C178.452 62.6267 176.638 63.3333 174.452 63.84C172.265 64.3467 169.785 64.6933 167.012 64.88L165.212 60.72ZM165.652 82.52C165.652 81.7733 165.878 81.12 166.332 80.56C166.785 80 167.572 79.5333 168.692 79.16C169.812 78.7867 171.305 78.5067 173.172 78.32C175.038 78.1333 177.398 78.04 180.252 78.04C183.078 78.04 185.425 78.1333 187.292 78.32C189.158 78.5067 190.652 78.7867 191.772 79.16C192.892 79.5333 193.678 80 194.132 80.56C194.585 81.12 194.812 81.7733 194.812 82.52C194.812 83.2667 194.585 83.92 194.132 84.48C193.678 85.04 192.892 85.5067 191.772 85.88C190.652 86.28 189.158 86.5733 187.292 86.76C185.425 86.9467 183.078 87.04 180.252 87.04C177.398 87.04 175.038 86.9467 173.172 86.76C171.305 86.5733 169.812 86.28 168.692 85.88C167.572 85.5067 166.785 85.04 166.332 84.48C165.878 83.92 165.652 83.2667 165.652 82.52ZM163.532 66.12H177.092V63.84H183.372V66.12H196.932V70.6H163.532V66.12ZM195.772 76.96H164.692V72.72H177.092V71.4H183.372V72.72H195.772V76.96ZM172.372 82.52C172.372 82.68 172.478 82.8133 172.692 82.92C172.932 83.0267 173.345 83.1067 173.932 83.16C174.545 83.24 175.358 83.2933 176.372 83.32C177.385 83.3467 178.678 83.36 180.252 83.36C181.798 83.36 183.078 83.3467 184.092 83.32C185.105 83.2933 185.905 83.24 186.492 83.16C187.105 83.1067 187.532 83.0267 187.772 82.92C188.012 82.8133 188.132 82.68 188.132 82.52C188.132 82.36 188.012 82.2267 187.772 82.12C187.532 82.0133 187.105 81.9333 186.492 81.88C185.905 81.8267 185.105 81.7867 184.092 81.76C183.078 81.7333 181.798 81.72 180.252 81.72C178.678 81.72 177.385 81.7333 176.372 81.76C175.358 81.7867 174.545 81.8267 173.932 81.88C173.345 81.9333 172.932 82.0133 172.692 82.12C172.478 82.2267 172.372 82.36 172.372 82.52ZM203.109 58.92C203.109 57.56 203.455 56.4133 204.149 55.48C204.869 54.5467 205.869 53.8 207.149 53.24C208.429 52.6533 209.975 52.24 211.789 52C213.602 51.7333 215.615 51.6 217.829 51.6C220.042 51.6 222.055 51.7333 223.869 52C225.682 52.24 227.229 52.6533 228.509 53.24C229.815 53.8 230.815 54.5467 231.509 55.48C232.229 56.4133 232.589 57.56 232.589 58.92C232.589 60.28 232.229 61.4267 231.509 62.36C230.815 63.2933 229.815 64.04 228.509 64.6C227.229 65.16 225.682 65.5733 223.869 65.84C222.055 66.08 220.042 66.2 217.829 66.2C215.615 66.2 213.602 66.08 211.789 65.84C209.975 65.5733 208.429 65.16 207.149 64.6C205.869 64.04 204.869 63.2933 204.149 62.36C203.455 61.4267 203.109 60.28 203.109 58.92ZM226.309 58.92C226.309 58.0133 225.535 57.3867 223.989 57.04C222.469 56.6667 220.415 56.48 217.829 56.48C215.269 56.48 213.215 56.6667 211.669 57.04C210.149 57.3867 209.389 58.0133 209.389 58.92C209.389 59.3733 209.589 59.76 209.989 60.08C210.389 60.4 210.949 60.6533 211.669 60.84C212.415 61.0267 213.309 61.16 214.349 61.24C215.389 61.32 216.549 61.36 217.829 61.36C220.415 61.36 222.469 61.1867 223.989 60.84C225.535 60.4667 226.309 59.8267 226.309 58.92ZM201.149 68.44H234.549V73.32H201.149V68.44ZM209.389 75.64V81.36H232.989V86.24H203.109V75.64H209.389ZM280.975 72.84V86.24H250.575V72.84H280.975ZM255.175 57.28V59.2H270.455V64.08H255.175V65.96H270.855V70.84H248.895V52.4H270.455V57.28H255.175ZM280.975 52V71.04H274.695V52H280.975ZM256.855 77.68V81.4H274.695V77.68H256.855ZM285.592 59.72C285.592 57.2933 286.592 55.4133 288.592 54.08C290.592 52.72 293.392 52.04 296.992 52.04C299.846 52.04 302.192 52.4667 304.032 53.32C305.899 54.1733 307.179 55.4 307.872 57L312.312 56V52H318.592V78.24H312.312V61L308.072 61.96C307.512 63.72 306.272 65.0667 304.352 66C302.432 66.9333 299.979 67.4 296.992 67.4C293.392 67.4 290.592 66.7333 288.592 65.4C286.592 64.04 285.592 62.1467 285.592 59.72ZM293.152 76.44V81.4H318.992V86.24H286.872V76.44H293.152ZM294.352 78.72V74.44H284.992V69.56H309.952V74.44H300.632V78.72H294.352ZM291.872 59.72C291.872 60.1733 292.019 60.5867 292.312 60.96C292.606 61.3067 292.992 61.6 293.472 61.84C293.952 62.08 294.499 62.2667 295.112 62.4C295.726 62.5067 296.352 62.56 296.992 62.56C297.632 62.56 298.259 62.4933 298.872 62.36C299.512 62.2267 300.072 62.04 300.552 61.8C301.059 61.56 301.459 61.2667 301.752 60.92C302.046 60.5733 302.192 60.1733 302.192 59.72C302.192 58.84 301.699 58.1467 300.712 57.64C299.752 57.1333 298.512 56.88 296.992 56.88C295.499 56.88 294.272 57.12 293.312 57.6C292.352 58.08 291.872 58.7867 291.872 59.72ZM348.77 57.72C348.77 57.1067 347.996 56.68 346.45 56.44C344.93 56.2 342.876 56.08 340.29 56.08C337.73 56.08 335.676 56.2133 334.13 56.48C332.61 56.72 331.85 57.1333 331.85 57.72C331.85 58.3333 332.61 58.76 334.13 59C335.676 59.24 337.73 59.36 340.29 59.36C342.876 59.36 344.93 59.24 346.45 59C347.996 58.76 348.77 58.3333 348.77 57.72ZM355.05 57.72C355.05 59.96 353.796 61.5467 351.29 62.48C348.783 63.3867 345.116 63.84 340.29 63.84C335.463 63.84 331.796 63.3867 329.29 62.48C326.81 61.5467 325.57 59.96 325.57 57.72C325.57 55.48 326.81 53.9067 329.29 53C331.796 52.0667 335.463 51.6 340.29 51.6C345.116 51.6 348.783 52.0667 351.29 53C353.796 53.9067 355.05 55.48 355.05 57.72ZM323.61 65.92H357.01V70.4H323.61V65.92ZM348.77 77.4V76H325.57V72.28H355.05V81.12H331.85V82.52H355.45V86.24H325.57V77.4H348.77ZM20.76 104.4V124.04H1.19998V104.4H20.76ZM9.15998 126.84V133.4H32.48V138.24H2.87998V126.84H9.15998ZM32.08 115.56V127.88H25.8V104H32.08V110.68H35.56V115.56H32.08ZM14.48 119.16V109.28H7.47998V119.16H14.48ZM63.4172 128.2V126.48H40.4972V122.32H69.6972V132.36H46.7772V134.08H70.0972V138.24H40.4972V128.2H63.4172ZM45.0972 104.4V115.16H59.5772V120.04H38.8172V104.4H45.0972ZM69.6972 114.36V120.52H63.4172V104H69.6972V109.48H73.1772V114.36H69.6972ZM105.964 104.96V108.36C105.964 109.773 105.697 111.133 105.164 112.44L118.844 118.96L115.764 123.36L102.204 116.92C100.71 118.413 98.8037 119.733 96.4837 120.88C94.1904 122.027 91.4571 122.987 88.2837 123.76L85.9237 119.16C88.3237 118.68 90.3904 118.053 92.1237 117.28C93.8571 116.507 95.2704 115.653 96.3637 114.72C97.4837 113.76 98.3104 112.747 98.8437 111.68C99.3771 110.587 99.6437 109.467 99.6437 108.32V104.96H105.964ZM85.5237 126.84H118.924V131.72H105.364V138.68H99.0837V131.72H85.5237V126.84ZM132.07 113.44C132.07 112 132.35 110.707 132.91 109.56C133.47 108.387 134.244 107.387 135.23 106.56C136.244 105.733 137.444 105.107 138.83 104.68C140.244 104.227 141.79 104 143.47 104C145.15 104 146.684 104.227 148.07 104.68C149.484 105.107 150.684 105.733 151.67 106.56C152.684 107.387 153.47 108.387 154.03 109.56C154.59 110.707 154.87 112 154.87 113.44C154.87 114.853 154.59 116.147 154.03 117.32C153.47 118.467 152.684 119.453 151.67 120.28C150.684 121.107 149.484 121.747 148.07 122.2C146.684 122.627 145.15 122.84 143.47 122.84C141.79 122.84 140.244 122.627 138.83 122.2C137.444 121.747 136.244 121.107 135.23 120.28C134.244 119.453 133.47 118.467 132.91 117.32C132.35 116.147 132.07 114.853 132.07 113.44ZM161.71 125.88C161.71 127.72 161.404 129.413 160.79 130.96L168.07 133.36L165.55 137.84L158.11 135.2C156.03 137.333 153.15 138.92 149.47 139.96L146.87 135.88C147.884 135.613 148.79 135.32 149.59 135C150.417 134.68 151.15 134.307 151.79 133.88L145.23 131.72C144.27 133.133 142.95 134.32 141.27 135.28C139.617 136.24 137.684 136.947 135.47 137.4L133.03 132.8C135.777 132.267 137.79 131.467 139.07 130.4C140.35 129.333 140.99 127.827 140.99 125.88V124.8H146.99V125.88C146.99 126.093 146.977 126.32 146.95 126.56C146.95 126.773 146.937 126.987 146.91 127.2L155.07 130C155.284 129.413 155.444 128.787 155.55 128.12C155.657 127.427 155.71 126.68 155.71 125.88V124.8H161.71V125.88ZM165.35 104V123H159.07V104H165.35ZM143.47 117.96C144.137 117.96 144.777 117.853 145.39 117.64C146.03 117.427 146.577 117.12 147.03 116.72C147.51 116.32 147.884 115.853 148.15 115.32C148.444 114.76 148.59 114.133 148.59 113.44C148.59 112.747 148.444 112.12 148.15 111.56C147.884 111 147.51 110.52 147.03 110.12C146.577 109.72 146.03 109.413 145.39 109.2C144.777 108.987 144.137 108.88 143.47 108.88C142.777 108.88 142.124 108.987 141.51 109.2C140.897 109.413 140.35 109.72 139.87 110.12C139.417 110.52 139.044 111 138.75 111.56C138.484 112.12 138.35 112.747 138.35 113.44C138.35 114.133 138.484 114.76 138.75 115.32C139.044 115.853 139.417 116.32 139.87 116.72C140.35 117.12 140.897 117.427 141.51 117.64C142.124 117.853 142.777 117.96 143.47 117.96ZM195.527 109.72C195.527 109.107 194.754 108.68 193.207 108.44C191.687 108.2 189.634 108.08 187.047 108.08C184.487 108.08 182.434 108.213 180.887 108.48C179.367 108.72 178.607 109.133 178.607 109.72C178.607 110.333 179.367 110.76 180.887 111C182.434 111.24 184.487 111.36 187.047 111.36C189.634 111.36 191.687 111.24 193.207 111C194.754 110.76 195.527 110.333 195.527 109.72ZM201.807 109.72C201.807 111.96 200.554 113.547 198.047 114.48C195.541 115.387 191.874 115.84 187.047 115.84C182.221 115.84 178.554 115.387 176.047 114.48C173.567 113.547 172.327 111.96 172.327 109.72C172.327 107.48 173.567 105.907 176.047 105C178.554 104.067 182.221 103.6 187.047 103.6C191.874 103.6 195.541 104.067 198.047 105C200.554 105.907 201.807 107.48 201.807 109.72ZM170.367 117.92H203.767V122.4H170.367V117.92ZM195.527 129.4V128H172.327V124.28H201.807V133.12H178.607V134.52H202.207V138.24H172.327V129.4H195.527ZM216.425 106.8V104.8H228.865V137.04H222.585V109.68H217.825V137.04H211.545V111.68H206.945V106.8H216.425ZM239.785 116.52H243.265V121.4H239.785V137.44H233.505V104H239.785V116.52ZM252.842 129V120.08C253.882 120 254.922 119.813 255.962 119.52C257.002 119.227 257.922 118.813 258.722 118.28C259.549 117.747 260.215 117.08 260.722 116.28C261.255 115.453 261.522 114.48 261.522 113.36C261.522 112.56 261.362 111.853 261.042 111.24C260.722 110.6 260.295 110.08 259.762 109.68C259.255 109.253 258.655 108.933 257.962 108.72C257.295 108.507 256.602 108.4 255.882 108.4C255.082 108.4 254.335 108.547 253.642 108.84C252.975 109.133 252.362 109.533 251.802 110.04C251.269 110.52 250.802 111.08 250.402 111.72C250.029 112.36 249.735 113.04 249.522 113.76L244.522 111.64C244.922 110.2 245.509 108.973 246.282 107.96C247.055 106.92 247.962 106.08 249.002 105.44C250.042 104.773 251.189 104.28 252.442 103.96C253.695 103.64 255.002 103.48 256.362 103.48C258.069 103.48 259.629 103.72 261.042 104.2C262.455 104.653 263.655 105.293 264.642 106.12C265.655 106.947 266.442 107.947 267.002 109.12C267.562 110.267 267.842 111.52 267.842 112.88C267.842 114.24 267.602 115.48 267.122 116.6C266.642 117.72 266.002 118.707 265.202 119.56C264.402 120.413 263.469 121.147 262.402 121.76C261.362 122.347 260.269 122.8 259.122 123.12V129H252.842ZM252.842 132.4H259.122V138.24H252.842V132.4Z" fill="#B7C4C7"/>
</svg>
