<svg width="30" height="30" viewBox="0 0 30 30" fill="none" xmlns="http://www.w3.org/2000/svg">
<path d="M12.7666 4.75684L13.7383 4.99292L13.7384 4.99278L12.7666 4.75684ZM17.2334 4.75684L16.2616 4.99278L16.2617 4.99291L17.2334 4.75684ZM20.6641 6.17676L20.1439 5.32269L20.1438 5.32278L20.6641 6.17676ZM23.8232 9.33594L24.6772 9.85624L24.6773 9.8561L23.8232 9.33594ZM25.2432 12.7666L25.0071 13.7383L25.0072 13.7384L25.2432 12.7666ZM25.2432 17.2334L25.0072 16.2616L25.0071 16.2617L25.2432 17.2334ZM23.8232 20.6641L24.6773 20.1439L24.6772 20.1438L23.8232 20.6641ZM20.6641 23.8232L20.1438 24.6772L20.1439 24.6773L20.6641 23.8232ZM17.2334 25.2432L16.2617 25.0071L16.2616 25.0072L17.2334 25.2432ZM12.7666 25.2432L13.7384 25.0072L13.7383 25.0071L12.7666 25.2432ZM9.33594 23.8232L9.8561 24.6773L9.85624 24.6772L9.33594 23.8232ZM6.17676 20.6641L5.32278 20.1438L5.32269 20.1439L6.17676 20.6641ZM4.75684 17.2334L4.99291 16.2617L4.99278 16.2616L4.75684 17.2334ZM4.75684 12.7666L4.99278 13.7384L4.99292 13.7383L4.75684 12.7666ZM6.17676 9.33594L5.32269 9.8561L5.32278 9.85624L6.17676 9.33594ZM9.33594 6.17676L9.85624 5.32278L9.8561 5.32269L9.33594 6.17676ZM15 11L15 10L15 10L15 11ZM11 15L10 15V15H11ZM15 19L15 20H15V19ZM19 15L20 15L20 15L19 15ZM12.7666 4.75684L13.7384 4.99278C14.0596 3.66969 15.9404 3.66969 16.2616 4.99278L17.2334 4.75684L18.2052 4.52089C17.3892 1.16032 12.6108 1.16032 11.7948 4.52089L12.7666 4.75684ZM17.2334 4.75684L16.2617 4.99291C16.7891 7.16408 19.2773 8.19267 21.1844 7.03074L20.6641 6.17676L20.1438 5.32278C19.3922 5.78069 18.4126 5.37473 18.2051 4.52076L17.2334 4.75684ZM20.6641 6.17676L21.1842 7.03082C22.3468 6.32276 23.6772 7.65318 22.9692 8.81577L23.8232 9.33594L24.6773 9.8561C26.4758 6.90313 23.0969 3.52417 20.1439 5.32269L20.6641 6.17676ZM23.8232 9.33594L22.9693 8.81563C21.8073 10.7227 22.836 13.2108 25.0071 13.7383L25.2432 12.7666L25.4793 11.7949C24.6253 11.5874 24.2193 10.6078 24.6772 9.85624L23.8232 9.33594ZM25.2432 12.7666L25.0072 13.7384C26.3303 14.0596 26.3303 15.9404 25.0072 16.2616L25.2432 17.2334L25.4791 18.2052C28.8397 17.3892 28.8397 12.6108 25.4791 11.7948L25.2432 12.7666ZM25.2432 17.2334L25.0071 16.2617C22.8359 16.7892 21.8073 19.2773 22.9693 21.1844L23.8232 20.6641L24.6772 20.1438C24.2193 19.3922 24.6253 18.4126 25.4793 18.2051L25.2432 17.2334ZM23.8232 20.6641L22.9692 21.1842C23.6773 22.3468 22.3468 23.6773 21.1842 22.9692L20.6641 23.8232L20.1439 24.6773C23.0969 26.4758 26.4758 23.0969 24.6773 20.1439L23.8232 20.6641ZM20.6641 23.8232L21.1844 22.9693C19.2773 21.8073 16.7892 22.8359 16.2617 25.0071L17.2334 25.2432L18.2051 25.4793C18.4126 24.6253 19.3922 24.2193 20.1438 24.6772L20.6641 23.8232ZM17.2334 25.2432L16.2616 25.0072C15.9404 26.3303 14.0596 26.3303 13.7384 25.0072L12.7666 25.2432L11.7948 25.4791C12.6108 28.8397 17.3892 28.8397 18.2052 25.4791L17.2334 25.2432ZM12.7666 25.2432L13.7383 25.0071C13.2108 22.836 10.7227 21.8073 8.81563 22.9693L9.33594 23.8232L9.85624 24.6772C10.6078 24.2193 11.5874 24.6253 11.7949 25.4793L12.7666 25.2432ZM9.33594 23.8232L8.81577 22.9692C7.65318 23.6772 6.32276 22.3468 7.03082 21.1842L6.17676 20.6641L5.32269 20.1439C3.52417 23.0969 6.90313 26.4758 9.8561 24.6773L9.33594 23.8232ZM6.17676 20.6641L7.03074 21.1844C8.19267 19.2773 7.16408 16.7891 4.99291 16.2617L4.75684 17.2334L4.52076 18.2051C5.37473 18.4126 5.78069 19.3922 5.32278 20.1438L6.17676 20.6641ZM4.75684 17.2334L4.99278 16.2616C3.66969 15.9404 3.66969 14.0596 4.99278 13.7384L4.75684 12.7666L4.52089 11.7948C1.16032 12.6108 1.16032 17.3892 4.52089 18.2052L4.75684 17.2334ZM4.75684 12.7666L4.99292 13.7383C7.16407 13.2109 8.19267 10.7227 7.03074 8.81563L6.17676 9.33594L5.32278 9.85624C5.78068 10.6078 5.37473 11.5874 4.52076 11.7949L4.75684 12.7666ZM6.17676 9.33594L7.03083 8.81578C6.32277 7.6532 7.6532 6.32277 8.81577 7.03083L9.33594 6.17676L9.8561 5.32269C6.90313 3.52421 3.52421 6.90313 5.32269 9.8561L6.17676 9.33594ZM9.33594 6.17676L8.81563 7.03074C10.7227 8.19267 13.2109 7.16407 13.7383 4.99292L12.7666 4.75684L11.7949 4.52076C11.5874 5.37473 10.6078 5.78068 9.85624 5.32278L9.33594 6.17676ZM15 11L15 10C12.2386 10 10 12.2386 10 15L11 15L12 15C12 13.3432 13.3432 12 15 12L15 11ZM11 15H10C10 17.7614 12.2386 20 15 20L15 19L15 18C13.3431 18 12 16.6568 12 15H11ZM15 19V20C17.7614 20 20 17.7614 20 15H19H18C18 16.6569 16.6569 18 15 18V19ZM19 15L20 15C20 12.2386 17.7614 10 15 10V11V12C16.6568 12 18 13.3431 18 15L19 15Z" fill="#838F91"/>
</svg>
