<svg width="499" height="254" viewBox="0 0 499 254" fill="none" xmlns="http://www.w3.org/2000/svg">
<path d="M17.064 4.1759V50.5439H38.808V62.9279H2.16003V4.1759H17.064ZM59.904 23.8319H66.168V36.2159H59.904V63.6479H45V2.7359H59.904V23.8319ZM111.165 37.2239L106.989 38.6639C106.701 43.4639 105.981 47.4719 104.829 50.6879C103.725 53.8559 102.309 56.3999 100.581 58.3199C98.9012 60.2399 96.9812 61.6079 94.8212 62.4239C92.7092 63.2399 90.4772 63.6479 88.1252 63.6479C85.5812 63.6479 83.1572 63.1679 80.8532 62.2079C78.5492 61.2479 76.5332 59.6159 74.8052 57.3119C73.0772 55.0079 71.6852 51.9359 70.6292 48.0959C69.6212 44.2079 69.1172 39.3599 69.1172 33.5519C69.1172 27.7439 69.6212 22.9199 70.6292 19.0799C71.6852 15.1919 73.0772 12.0959 74.8052 9.7919C76.5332 7.4879 78.5492 5.8559 80.8532 4.8959C83.1572 3.9359 85.5812 3.4559 88.1252 3.4559C90.3332 3.4559 92.4452 3.8159 94.4612 4.5359C96.4772 5.25589 98.3012 6.45589 99.9332 8.1359C101.613 9.8159 103.029 12.0479 104.181 14.8319C105.333 17.6159 106.149 21.0719 106.629 25.1999L111.165 23.6159V2.7359H125.133V63.6479H111.165V37.2239ZM128.229 63.6479V2.7359H142.269V63.6479H128.229ZM83.0132 33.5519C83.0132 37.2479 83.1572 40.2479 83.4452 42.5519C83.7812 44.8559 84.1892 46.6559 84.6692 47.9519C85.1972 49.2479 85.7492 50.1359 86.3252 50.6159C86.9492 51.0479 87.5492 51.2639 88.1252 51.2639C88.7012 51.2639 89.2772 51.0479 89.8532 50.6159C90.4772 50.1359 91.0292 49.2719 91.5092 48.0239C91.9892 46.7279 92.3732 44.9279 92.6612 42.6239C92.9972 40.2719 93.1652 37.2239 93.1652 33.4799C93.1652 29.7839 92.9972 26.7839 92.6612 24.4799C92.3732 22.1759 91.9892 20.3999 91.5092 19.1519C91.0292 17.8559 90.4772 16.9919 89.8532 16.5599C89.2772 16.0799 88.7012 15.8399 88.1252 15.8399C87.5492 15.8399 86.9492 16.0799 86.3252 16.5599C85.7492 16.9919 85.1972 17.8559 84.6692 19.1519C84.1892 20.4479 83.7812 22.2479 83.4452 24.5519C83.1572 26.8559 83.0132 29.8559 83.0132 33.5519ZM184.574 63.6479V38.2319L180.614 39.5999V62.9279H166.646V16.5599H147.566V4.1759H180.614V25.9919L184.574 24.6239V2.7359H198.542V63.6479H184.574ZM215.678 63.6479H201.638V2.7359H215.678V63.6479ZM393.869 45.2879V52.7759H434.405V65.0879H378.965V45.2879H393.869ZM394.301 17.8559C397.661 17.8559 400.541 18.1679 402.941 18.7919C405.341 19.4159 407.309 20.2799 408.845 21.3839C410.381 22.4399 411.485 23.7359 412.157 25.2719C412.877 26.7599 413.237 28.3919 413.237 30.1679C413.237 31.9919 412.877 33.6719 412.157 35.2079C411.485 36.6959 410.381 37.9919 408.845 39.0959C407.309 40.1519 405.341 40.9919 402.941 41.6159C400.541 42.1919 397.661 42.4799 394.301 42.4799C390.893 42.4799 387.989 42.1919 385.589 41.6159C383.237 40.9919 381.293 40.1519 379.757 39.0959C378.221 37.9919 377.093 36.6959 376.373 35.2079C375.701 33.6719 375.365 31.9919 375.365 30.1679C375.365 28.3919 375.701 26.7599 376.373 25.2719C377.093 23.7359 378.221 22.4399 379.757 21.3839C381.293 20.2799 383.237 19.4159 385.589 18.7919C387.989 18.1679 390.893 17.8559 394.301 17.8559ZM433.685 29.3039V47.8799H418.781V2.7359H433.685V16.9199H439.949V29.3039H433.685ZM401.717 4.8959H414.965V15.8399H373.565V4.8959H386.813V-0.000102043H401.717V4.8959ZM394.301 26.5679C392.861 26.5679 391.733 26.9039 390.917 27.5759C390.149 28.1999 389.765 29.0639 389.765 30.1679C389.765 31.2719 390.149 32.1599 390.917 32.8319C391.733 33.5039 392.861 33.8399 394.301 33.8399C395.741 33.8399 396.845 33.5039 397.613 32.8319C398.429 32.1599 398.837 31.2719 398.837 30.1679C398.837 29.0639 398.429 28.1999 397.613 27.5759C396.797 26.9039 395.693 26.5679 394.301 26.5679ZM62.064 134.248V159.088H5.18403V134.248H62.064ZM17.064 107.248V109.552H40.248V119.344H17.064V121.576H40.968V131.368H2.16003V97.4559H40.248V107.248H17.064ZM62.064 96.7359V131.728H47.16V96.7359H62.064ZM20.088 144.4V148.936H47.16V144.4H20.088ZM69.6212 110.992C69.6212 108.496 70.1492 106.36 71.2052 104.584C72.3092 102.76 73.7972 101.272 75.6692 100.12C77.5412 98.9679 79.7492 98.1279 82.2932 97.5999C84.8372 97.0719 87.5732 96.8079 90.5012 96.8079C92.7092 96.8079 94.7972 96.9759 96.7652 97.3119C98.7812 97.5999 100.629 98.0559 102.309 98.6799C103.989 99.3039 105.453 100.12 106.701 101.128C107.997 102.088 109.053 103.24 109.869 104.584L116.277 103.144V96.7359H131.181V143.248H116.277V115.456L110.085 116.896C108.597 119.776 106.101 121.864 102.597 123.16C99.0932 124.456 95.0612 125.104 90.5012 125.104C87.5732 125.104 84.8372 124.84 82.2932 124.312C79.7492 123.784 77.5412 122.944 75.6692 121.792C73.7972 120.64 72.3092 119.176 71.2052 117.4C70.1492 115.624 69.6212 113.488 69.6212 110.992ZM86.8292 144.112V146.776H131.901V159.088H71.9252V141.448H83.2292V138.568H68.5412V127.624H113.469V138.568H98.1332V144.112H86.8292ZM90.5012 114.88C92.3732 114.88 93.9572 114.592 95.2532 114.016C96.5492 113.392 97.1972 112.384 97.1972 110.992C97.1972 109.6 96.5492 108.592 95.2532 107.968C93.9572 107.344 92.3732 107.032 90.5012 107.032C88.6772 107.032 87.1172 107.344 85.8212 107.968C84.5732 108.592 83.9492 109.6 83.9492 110.992C83.9492 112.432 84.5732 113.44 85.8212 114.016C87.1172 114.592 88.6772 114.88 90.5012 114.88ZM139.458 130.576V121H201.738V130.576H139.458ZM183.306 142.456V140.656H142.986V133.24H198.21V149.872H157.89V151.672H198.93V159.088H142.986V142.456H183.306ZM142.986 107.752C142.986 105.592 143.634 103.768 144.93 102.28C146.226 100.792 148.05 99.5919 150.402 98.6799C152.802 97.7199 155.706 97.0479 159.114 96.6639C162.522 96.2319 166.362 96.0159 170.634 96.0159C174.858 96.0159 178.674 96.2319 182.082 96.6639C185.49 97.0479 188.394 97.7199 190.794 98.6799C193.194 99.5919 195.018 100.792 196.266 102.28C197.562 103.768 198.21 105.592 198.21 107.752C198.21 109.912 197.562 111.712 196.266 113.152C195.018 114.544 193.194 115.672 190.794 116.536C188.442 117.352 185.562 117.928 182.154 118.264C178.746 118.552 174.906 118.696 170.634 118.696C166.362 118.696 162.522 118.552 159.114 118.264C155.706 117.928 152.802 117.352 150.402 116.536C148.05 115.672 146.226 114.544 144.93 113.152C143.634 111.712 142.986 109.912 142.986 107.752ZM170.634 109.552C174.714 109.552 177.834 109.456 179.994 109.264C182.202 109.072 183.306 108.568 183.306 107.752C183.306 106.936 182.202 106.432 179.994 106.24C177.834 106 174.714 105.88 170.634 105.88C166.554 105.88 163.41 106 161.202 106.24C158.994 106.432 157.89 106.936 157.89 107.752C157.89 108.568 158.994 109.072 161.202 109.264C163.41 109.456 166.554 109.552 170.634 109.552ZM226.955 138.568V128.344H240.923V126.328C236.843 125.8 233.843 124.816 231.923 123.376C230.051 121.936 229.115 119.968 229.115 117.472C229.115 114.352 230.675 112.024 233.795 110.488C236.915 108.952 241.883 108.184 248.699 108.184C255.563 108.184 260.555 108.952 263.675 110.488C266.843 112.024 268.427 114.352 268.427 117.472C268.427 120.064 267.419 122.08 265.403 123.52C263.387 124.96 260.195 125.92 255.827 126.4V128.344H270.443V138.568H226.955ZM273.251 159.088V153.04H231.059V141.448H288.155V159.088H273.251ZM288.155 123.304V138.928H273.251V96.7359H288.155V110.92H294.419V123.304H288.155ZM256.187 97.5999H270.155V106.672H227.315V97.5999H241.283V93.9999H256.187V97.5999ZM248.699 115.6C247.979 115.6 247.211 115.624 246.395 115.672C245.627 115.72 244.907 115.816 244.235 115.96C243.611 116.104 243.083 116.296 242.651 116.536C242.267 116.776 242.075 117.088 242.075 117.472C242.075 117.856 242.267 118.168 242.651 118.408C243.083 118.648 243.611 118.84 244.235 118.984C244.907 119.128 245.627 119.248 246.395 119.344C247.211 119.392 247.979 119.416 248.699 119.416C249.419 119.416 250.163 119.392 250.931 119.344C251.747 119.296 252.467 119.2 253.091 119.056C253.763 118.912 254.315 118.72 254.747 118.48C255.179 118.192 255.395 117.856 255.395 117.472C255.395 117.088 255.179 116.776 254.747 116.536C254.315 116.296 253.763 116.104 253.091 115.96C252.419 115.816 251.699 115.72 250.931 115.672C250.163 115.624 249.419 115.6 248.699 115.6ZM358.712 96.7359V140.44H343.808V96.7359H358.712ZM316.736 137.848V146.776H359.432V159.088H301.832V137.848H316.736ZM296.648 115.528C296.648 112.6 297.176 109.984 298.232 107.68C299.288 105.328 300.752 103.336 302.624 101.704C304.496 100.072 306.728 98.8479 309.32 98.0319C311.912 97.1679 314.768 96.7359 317.888 96.7359C321.008 96.7359 323.864 97.1679 326.456 98.0319C329.048 98.8479 331.28 100.072 333.152 101.704C335.024 103.336 336.488 105.328 337.544 107.68C338.6 109.984 339.128 112.6 339.128 115.528C339.128 118.456 338.6 121.072 337.544 123.376C336.488 125.68 335.024 127.648 333.152 129.28C331.28 130.864 329.048 132.088 326.456 132.952C323.864 133.816 321.008 134.248 317.888 134.248C314.768 134.248 311.912 133.816 309.32 132.952C306.728 132.088 304.496 130.864 302.624 129.28C300.752 127.648 299.288 125.68 298.232 123.376C297.176 121.072 296.648 118.456 296.648 115.528ZM317.888 122.584C318.752 122.584 319.592 122.44 320.408 122.152C321.272 121.816 322.016 121.36 322.64 120.784C323.312 120.16 323.84 119.416 324.224 118.552C324.656 117.688 324.872 116.68 324.872 115.528C324.872 114.376 324.656 113.368 324.224 112.504C323.84 111.592 323.312 110.848 322.64 110.272C322.016 109.648 321.272 109.192 320.408 108.904C319.592 108.568 318.752 108.4 317.888 108.4C317.024 108.4 316.16 108.568 315.296 108.904C314.48 109.192 313.736 109.648 313.064 110.272C312.44 110.848 311.912 111.592 311.48 112.504C311.096 113.368 310.904 114.376 310.904 115.528C310.904 116.68 311.096 117.688 311.48 118.552C311.912 119.416 312.44 120.16 313.064 120.784C313.736 121.36 314.48 121.816 315.296 122.152C316.16 122.44 317.024 122.584 317.888 122.584ZM386.286 157.648C383.694 157.648 381.246 157.288 378.942 156.568C376.638 155.848 374.622 154.672 372.894 153.04C371.214 151.456 369.87 149.392 368.862 146.848C367.854 144.256 367.35 141.136 367.35 137.488C367.35 133.84 367.854 130.744 368.862 128.2C369.87 125.656 371.214 123.592 372.894 122.008C374.622 120.376 376.638 119.2 378.942 118.48C381.246 117.712 383.694 117.328 386.286 117.328C388.878 117.328 391.326 117.712 393.63 118.48C395.934 119.2 397.926 120.376 399.606 122.008C401.334 123.592 402.702 125.656 403.71 128.2C404.718 130.744 405.222 133.84 405.222 137.488C405.222 141.136 404.718 144.256 403.71 146.848C402.702 149.392 401.334 151.456 399.606 153.04C397.926 154.672 395.934 155.848 393.63 156.568C391.326 157.288 388.878 157.648 386.286 157.648ZM425.67 117.832H431.934V130.216H425.67V157.648H410.766V96.7359H425.67V117.832ZM393.702 101.776H406.95V114.16H365.55V101.776H378.798V95.4399H393.702V101.776ZM386.286 145.264C387.678 145.264 388.71 144.664 389.382 143.464C390.054 142.216 390.39 140.224 390.39 137.488C390.39 134.752 390.054 132.784 389.382 131.584C388.71 130.336 387.678 129.712 386.286 129.712C384.894 129.712 383.862 130.336 383.19 131.584C382.518 132.784 382.182 134.752 382.182 137.488C382.182 140.224 382.518 142.216 383.19 143.464C383.862 144.664 384.894 145.264 386.286 145.264ZM479.955 110.56H439.635V98.1759H494.859V139.144H479.955V110.56ZM436.107 145.264H455.475V122.656H470.379V145.264H498.387V157.648H436.107V145.264ZM2.69413e-05 209.528C2.69413e-05 206.6 0.480027 203.984 1.44003 201.68C2.40003 199.328 3.76803 197.336 5.54403 195.704C7.36803 194.072 9.52803 192.848 12.024 192.032C14.568 191.168 17.4 190.736 20.52 190.736C24.024 190.736 27.144 191.288 29.88 192.392C32.616 193.448 34.872 194.984 36.648 197L47.16 194.984V190.736H62.064V234.44H47.16V220.328L36.36 222.344C34.536 224.264 32.28 225.728 29.592 226.736C26.952 227.744 23.928 228.248 20.52 228.248C17.4 228.248 14.568 227.816 12.024 226.952C9.52803 226.088 7.36803 224.864 5.54403 223.28C3.76803 221.648 2.40003 219.68 1.44003 217.376C0.480027 215.072 2.69413e-05 212.456 2.69413e-05 209.528ZM20.088 231.848V240.776H62.784V253.088H5.18403V231.848H20.088ZM20.52 216.584C22.296 216.584 23.784 215.984 24.984 214.784C26.184 213.584 26.784 211.832 26.784 209.528C26.784 207.176 26.184 205.4 24.984 204.2C23.784 203 22.296 202.4 20.52 202.4C18.744 202.4 17.256 203 16.056 204.2C14.856 205.4 14.256 207.176 14.256 209.528C14.256 211.832 14.856 213.584 16.056 214.784C17.256 215.984 18.744 216.584 20.52 216.584ZM41.04 209.528C41.04 209.864 41.016 210.176 40.968 210.464C40.968 210.752 40.968 211.04 40.968 211.328L47.16 210.104V205.208L40.824 206.36C40.968 207.368 41.04 208.424 41.04 209.528ZM116.277 234.224V232.064H74.3012V223.712H131.181V242.576H89.2052V244.736H131.901V253.088H74.3012V234.224H116.277ZM71.2772 203.84V191.456H107.925V220.328H93.0212V203.84H71.2772ZM109.725 208.016L116.277 207.08V203.984L109.725 204.92V195.056L116.277 194.12V190.736H131.181V221.192H116.277V216.944L109.725 217.88V208.016ZM158.754 251.648C156.162 251.648 153.714 251.288 151.41 250.568C149.106 249.848 147.09 248.672 145.362 247.04C143.682 245.456 142.338 243.392 141.33 240.848C140.322 238.256 139.818 235.136 139.818 231.488C139.818 227.84 140.322 224.744 141.33 222.2C142.338 219.656 143.682 217.592 145.362 216.008C147.09 214.376 149.106 213.2 151.41 212.48C153.714 211.712 156.162 211.328 158.754 211.328C161.346 211.328 163.794 211.712 166.098 212.48C168.402 213.2 170.394 214.376 172.074 216.008C173.802 217.592 175.17 219.656 176.178 222.2C177.186 224.744 177.69 227.84 177.69 231.488C177.69 235.136 177.186 238.256 176.178 240.848C175.17 243.392 173.802 245.456 172.074 247.04C170.394 248.672 168.402 249.848 166.098 250.568C163.794 251.288 161.346 251.648 158.754 251.648ZM198.138 211.832H204.402V224.216H198.138V251.648H183.234V190.736H198.138V211.832ZM166.17 195.776H179.418V208.16H138.018V195.776H151.266V189.44H166.17V195.776ZM158.754 239.264C160.146 239.264 161.178 238.664 161.85 237.464C162.522 236.216 162.858 234.224 162.858 231.488C162.858 228.752 162.522 226.784 161.85 225.584C161.178 224.336 160.146 223.712 158.754 223.712C157.362 223.712 156.33 224.336 155.658 225.584C154.986 226.784 154.65 228.752 154.65 231.488C154.65 234.224 154.986 236.216 155.658 237.464C156.33 238.664 157.362 239.264 158.754 239.264ZM246.16 192.176V204.56H224.416V238.544H246.88V250.928H209.512V192.176H246.16ZM267.256 211.832H273.52V224.216H267.256V251.648H252.352V190.736H267.256V211.832ZM279.349 235.016V191.312H294.253V235.016H279.349ZM279.349 253.088V238.904H294.253V253.088H279.349Z" fill="#495456"/>
<path d="M288.027 28.0799V40.4639H259.731V63.5759H244.755V6.1919H289.395V18.5759H259.731V28.0799H288.027ZM310.848 6.1919V63.5759H295.872V6.1919H310.848ZM351.215 18.5759V63.5759H336.239V18.5759H318.023V6.1919H369.431V18.5759H351.215Z" fill="#00C3CC"/>
</svg>
