<svg width="30" height="30" viewBox="0 0 30 30" fill="none" xmlns="http://www.w3.org/2000/svg">
<path d="M9.93066 24.1318L10.2683 23.1906C9.97478 23.0853 9.64899 23.1229 9.38724 23.2924L9.93066 24.1318ZM5.5 27L4.50124 26.9501C4.48253 27.325 4.6753 27.6788 5.00044 27.8663C5.32559 28.0538 5.72834 28.0434 6.04342 27.8395L5.5 27ZM5.7627 21.7383L6.76145 21.7881C6.77691 21.4786 6.64797 21.1794 6.41237 20.9781L5.7627 21.7383ZM15 3V4C21.7905 4 27 8.62723 27 14H28H29C29 7.2225 22.5689 2 15 2V3ZM28 14H27C27 19.3728 21.7905 24 15 24V25V26C22.5689 26 29 20.7775 29 14H28ZM15 25V24C13.3162 24 11.7174 23.7103 10.2683 23.1906L9.93066 24.1318L9.59305 25.0731C11.2595 25.6708 13.0868 26 15 26V25ZM9.93066 24.1318L9.38724 23.2924L4.95658 26.1605L5.5 27L6.04342 27.8395L10.4741 24.9713L9.93066 24.1318ZM5.5 27L6.49876 27.0499L6.76145 21.7881L5.7627 21.7383L4.76394 21.6884L4.50124 26.9501L5.5 27ZM5.7627 21.7383L6.41237 20.9781C4.27558 19.152 3 16.684 3 14H2H1C1 17.3516 2.59855 20.3497 5.11302 22.4985L5.7627 21.7383ZM2 14H3C3 8.62723 8.20948 4 15 4V3V2C7.43112 2 1 7.2225 1 14H2Z" fill="#00C3CC"/>
<circle cx="9.5" cy="14" r="2" fill="#00C3CC"/>
<circle cx="15.5" cy="14" r="2" fill="#00C3CC"/>
<circle cx="21.5" cy="14" r="2" fill="#00C3CC"/>
</svg>
