<svg width="30" height="30" viewBox="0 0 30 30" fill="none" xmlns="http://www.w3.org/2000/svg">
<path d="M15.7071 5.29289C15.3166 4.90237 14.6834 4.90237 14.2929 5.29289L7.92893 11.6569C7.53841 12.0474 7.53841 12.6805 7.92893 13.0711C8.31946 13.4616 8.95262 13.4616 9.34315 13.0711L15 7.41421L20.6569 13.0711C21.0474 13.4616 21.6805 13.4616 22.0711 13.0711C22.4616 12.6805 22.4616 12.0474 22.0711 11.6569L15.7071 5.29289ZM14 21C14 21.5523 14.4477 22 15 22C15.5523 22 16 21.5523 16 21H15H14ZM15 6H14V21H15H16V6H15Z" fill="#838F91"/>
<path d="M5 25C5.84211 25 18.6842 25 25 25" stroke="#838F91" stroke-width="2" stroke-linecap="round"/>
</svg>
